# xmcd
#
# Track frame offsets:
#	150
#	11235
#	30587
#	47805
#	63582
#	75540
#	92430
#	104372
#	117790
#	131467
#	147137
#	160187
#
# Disc length: 2358 seconds
#
# Revision: 2740610149
# Processed by: cddbd v1.5.2PL0 Copyright (c) Steve Scherf et al.
# Submitted via: EZCDAudioConverter 8.3.2.1
#
DISCID=9409340c
DTITLE=Lucinda Williams
DYEAR=1988
DGENRE=Country rock
TTITLE0=I Just Wanted to See You So Bad
TTITLE1=The Night's Too Long
TTITLE2=Abandoned
TTITLE3=Big Red Sun Blues
TTITLE4=Like a Rose
TTITLE5=Changed the Locks
TTITLE6=Passionate Kisses
TTITLE7=Am I Too Blue
TTITLE8=Crescent City
TTITLE9=Side of the Road
TTITLE10=Price to Pay
TTITLE11=I Asked for Water (He Gave Me Gasoline)
EXTD=
EXTT0=
EXTT1=
EXTT2=
EXTT3=
EXTT4=
EXTT5=
EXTT6=
EXTT7=
EXTT8=
EXTT9=
EXTT10=
EXTT11=
PLAYORDER=
